<svg xmlns="http://www.w3.org/2000/svg" viewBox="508 120 368 562" role="img" aria-labelledby="t"><title id="t">P1 構えの見本（後ろから・右打ち）</title><g fill="none" stroke="currentColor" stroke-width="7" stroke-linecap="round" stroke-linejoin="round"><line x1="626" y1="212" x2="640" y2="330"/><line x1="640" y1="330" x2="655" y2="450"/><line x1="616" y1="216" x2="634" y2="332"/><line x1="634" y1="332" x2="651" y2="452"/><line x1="626" y1="212" x2="616" y2="216"/><line x1="556" y1="368" x2="548" y2="370"/><line x1="556" y1="368" x2="606" y2="510"/><line x1="606" y1="510" x2="590" y2="628"/><line x1="548" y1="370" x2="600" y2="512"/><line x1="600" y1="512" x2="582" y2="630"/><line x1="578" y1="640" x2="676" y2="640"/><line x1="570" y1="642" x2="670" y2="642"/><line x1="590" y1="628" x2="578" y2="640"/><line x1="582" y1="630" x2="570" y2="642"/><line x1="621" y1="214" x2="552" y2="369"/><circle cx="664" cy="174" r="18"/><line class="club" x1="646" y1="446" x2="836" y2="636" stroke-width="5"/></g><g fill="currentColor"><circle cx="840" cy="640" r="8"/></g></svg>
