<svg xmlns="http://www.w3.org/2000/svg">
<!-- アイコン一式（docs/DESIGN_v2.md §11.8）。24×24・線 1.75px・currentColor・角は丸める。自前で描いたもの。
     使う側は <svg class="icon"><use href="icons.svg#home"/></svg>。アイコンだけのボタンには aria-label を付ける。 -->
<symbol id="home" viewBox="0 0 24 24"><path d="M3.5 10.5 12 3.5l8.5 7"/><path d="M5.5 9v11h13V9"/><path d="M10 20v-6h4v6"/></symbol>
<symbol id="history" viewBox="0 0 24 24"><rect x="4" y="3.5" width="16" height="17" rx="2"/><path d="M8 8h8M8 12h8M8 16h5"/></symbol>
<symbol id="practice" viewBox="0 0 24 24"><circle cx="12" cy="12" r="8.5"/><path d="M10 8.5v7l5.5-3.5z"/></symbol>
<symbol id="progress" viewBox="0 0 24 24"><path d="M4 19.5h16"/><path d="M5 15l4.5-4.5 3.5 3.5L19 7.5"/><path d="M15 7.5h4v4"/></symbol>
<symbol id="settings" viewBox="0 0 24 24"><circle cx="12" cy="12" r="3"/><path d="M12 3v2.5M12 18.5V21M3 12h2.5M18.5 12H21M5.6 5.6l1.8 1.8M16.6 16.6l1.8 1.8M5.6 18.4l1.8-1.8M16.6 7.4l1.8-1.8"/></symbol>
<symbol id="camera" viewBox="0 0 24 24"><path d="M4 8h3l1.5-2.5h7L17 8h3v11H4z"/><circle cx="12" cy="13" r="3.5"/></symbol>
<symbol id="upload" viewBox="0 0 24 24"><path d="M12 15V4.5"/><path d="M7.5 9 12 4.5 16.5 9"/><path d="M4.5 15v4.5h15V15"/></symbol>
<symbol id="video" viewBox="0 0 24 24"><rect x="3.5" y="6" width="12" height="12" rx="2"/><path d="m15.5 10.5 5-3v9l-5-3"/></symbol>
<symbol id="check" viewBox="0 0 24 24"><path d="m5 12.5 4.5 4.5L19 7.5"/></symbol>
<symbol id="alert-triangle" viewBox="0 0 24 24"><path d="M12 4 21 19.5H3z"/><path d="M12 10v4.5M12 17.2v.1"/></symbol>
<symbol id="x" viewBox="0 0 24 24"><path d="M6 6l12 12M18 6 6 18"/></symbol>
<symbol id="minus" viewBox="0 0 24 24"><path d="M5.5 12h13"/></symbol>
<symbol id="plus" viewBox="0 0 24 24"><path d="M12 5.5v13M5.5 12h13"/></symbol>
<symbol id="chevron-left" viewBox="0 0 24 24"><path d="m14.5 5.5-6.5 6.5 6.5 6.5"/></symbol>
<symbol id="chevron-right" viewBox="0 0 24 24"><path d="m9.5 5.5 6.5 6.5-6.5 6.5"/></symbol>
<symbol id="play" viewBox="0 0 24 24"><path d="M8 5.5v13l10-6.5z"/></symbol>
<symbol id="layers" viewBox="0 0 24 24"><path d="M12 4 3.5 8.5 12 13l8.5-4.5z"/><path d="m3.5 12.5 8.5 4.5 8.5-4.5"/><path d="m3.5 16 8.5 4.5 8.5-4.5"/></symbol>
<symbol id="tap" viewBox="0 0 24 24"><circle cx="8" cy="8" r="2.5"/><circle cx="16" cy="16" r="2.5"/><path d="M9.8 9.8l4.4 4.4"/></symbol>
<symbol id="view-dtl" viewBox="0 0 24 24"><circle cx="12" cy="5.5" r="2"/><path d="M12 8v6l-3 6M12 14l3 6M8 11h8"/><path d="M3 20.5h18"/></symbol>
<symbol id="view-face" viewBox="0 0 24 24"><circle cx="12" cy="5.5" r="2"/><path d="M12 8v6M7 10.5h10M12 14l-3.5 6M12 14l3.5 6"/></symbol>
<symbol id="ten-ball" viewBox="0 0 24 24"><circle cx="6" cy="8" r="2"/><circle cx="12" cy="8" r="2"/><circle cx="18" cy="8" r="2"/><circle cx="9" cy="14" r="2"/><circle cx="15" cy="14" r="2"/><path d="M5 19.5h14"/></symbol>
<symbol id="info" viewBox="0 0 24 24"><circle cx="12" cy="12" r="8.5"/><path d="M12 11v5.5M12 7.8v.1"/></symbol>
<symbol id="power" viewBox="0 0 24 24"><path d="M13 3 6 13.5h5L10 21l8-11h-5z"/></symbol>
<symbol id="golf" viewBox="0 0 24 24"><path d="M8 20.5V3.5l8 3-8 3"/><path d="M4 20.5h10"/><circle cx="17.5" cy="18" r="2.5"/></symbol>
</svg>
